Coordinates
version=1
nRows=17
nColumns=40
inDegrees=yes

Units are S.I. units (second, meters, Newtons, ...)
Angles are in degrees.

endheader
time	pelvis_tilt	pelvis_list	pelvis_rotation	pelvis_tx	pelvis_ty	pelvis_tz	hip_flexion_r	hip_adduction_r	hip_rotation_r	knee_angle_r	knee_angle_r_beta	ankle_angle_r	subtalar_angle_r	mtp_angle_r	hip_flexion_l	hip_adduction_l	hip_rotation_l	knee_angle_l	knee_angle_l_beta	ankle_angle_l	subtalar_angle_l	mtp_angle_l	lumbar_extension	lumbar_bending	lumbar_rotation	arm_flex_r	arm_add_r	arm_rot_r	elbow_flex_r	pro_sup_r	wrist_flex_r	wrist_dev_r	arm_flex_l	arm_add_l	arm_rot_l	elbow_flex_l	pro_sup_l	wrist_flex_l	wrist_dev_l
      6.76000000	     -3.05702010	     -5.47987191	      0.82402470	      1.04203222	      0.93439095	      0.42526022	     28.01016960	     -5.55464196	     -6.22567121	     58.27964638	     58.27964638	      3.51979878	    -13.39729237	     -1.15472584	     16.64108562	     -5.92335702	     -6.42335002	     22.25732818	     22.25732818	     10.89941064	    -11.50955420	     -0.52552149	    -10.66528986	      4.68883496	      2.61466927	     10.11956930	    -12.13872456	     -5.89805784	     29.39761313	     44.47469806	      0.00000000	      0.00000000	     18.11346825	    -15.46744486	      8.24318846	     38.28519663	     44.26794272	      0.00000000	      0.00000000
      6.77342857	     -3.09878387	     -5.58812032	      0.38046457	      1.04093759	      0.93494709	      0.42471852	     28.69417270	     -5.38576144	     -6.18865445	     56.12184361	     56.12184361	      3.48513677	    -13.51583042	     -1.16329216	     16.11639271	     -6.04108920	     -6.72385425	     21.95819431	     21.95819431	     11.10343396	    -11.58931036	     -0.54395477	    -10.77365466	      4.87152289	      2.68768419	      8.51400318	    -12.69933502	     -6.10679147	     28.49339716	     44.54617460	      0.00000000	      0.00000000	     18.93055982	    -15.77126448	      8.04903255	     39.43299336	     44.33270001	      0.00000000	      0.00000000
      6.78685714	     -3.16591134	     -5.67610730	     -0.04861350	      1.03982073	      0.93542353	      0.42417482	     29.25488456	     -5.22917043	     -6.21914718	     53.69877775	     53.69877775	      3.27090151	    -13.59406661	     -1.34648019	     15.62393837	     -6.11282738	     -6.95984501	     21.64979602	     21.64979602	     11.27266174	    -11.75175067	     -0.54257450	    -10.88360796	      5.03689883	      2.74279055	      6.92051018	    -13.22631366	     -6.53317632	     27.57464903	     44.64357410	      0.00000000	      0.00000000	     19.54191150	    -16.15840448	      7.81873824	     41.10986404	     44.40956753	      0.00000000	      0.00000000
      6.80028571	     -3.26825449	     -5.79435902	     -0.45522868	      1.03874133	      0.93577561	      0.42367459	     29.70385644	     -5.04954193	     -6.38235991	     51.06051889	     51.06051889	      3.11659479	    -13.46360380	     -1.19042744	     15.18845845	     -6.21578249	     -7.16772562	     21.36450619	     21.36450619	     11.46294607	    -11.89849461	     -0.53505476	    -10.89155311	      5.24988518	      2.53418394	      5.49486253	    -13.72099109	     -6.82696886	     26.84143472	     44.70464023	      0.00000000	      0.00000000	     20.12407324	    -16.60374753	      7.60174040	     42.21469513	     44.46244069	      0.00000000	      0.00000000
      6.81371429	     -3.33057652	     -5.86141297	     -0.88845021	      1.03765859	      0.93610329	      0.42328384	     29.99781150	     -4.86861076	     -6.52645994	     48.22232298	     48.22232298	      2.86454247	    -13.26215672	     -1.01605574	     14.72004397	     -6.27529042	     -7.42431669	     21.10128164	     21.10128164	     11.63472082	    -12.04307249	     -0.53423095	    -11.01054942	      5.40362941	      2.60508395	      4.01955027	    -14.25632288	     -7.22917102	     26.04165091	     44.78095187	      0.00000000	      0.00000000	     20.67721093	    -16.98235180	      7.31824116	     43.79229694	     44.52777768	      0.00000000	      0.00000000
      6.82714286	     -3.44065704	     -5.85634760	     -1.30835079	      1.03660317	      0.93618592	      0.42300794	     30.20294441	     -4.75319985	     -6.75145125	     45.14624319	     45.14624319	      2.22386764	    -13.07735158	     -1.85342046	     14.33679176	     -6.27467070	     -7.73447771	     20.89515520	     20.89515520	     11.82785058	    -12.11273614	     -0.72427079	    -11.13756695	      5.42869044	      2.28152009	      2.99304339	    -14.42829848	     -9.29511476	     25.30369153	     45.08161265	      0.00000000	      0.00000000	     19.90535861	    -17.97846539	      6.61378992	     48.13614443	     44.72894545	      0.00000000	      0.00000000
      6.84057143	     -3.56521491	     -5.84054460	     -1.75617603	      1.03555555	      0.93618834	      0.42288873	     30.34488791	     -4.61692132	     -7.02311387	     41.98226677	     41.98226677	      1.86760593	    -12.40881117	     -1.80336078	     13.96784531	     -6.28183105	     -8.10740972	     20.68371053	     20.68371053	     12.00283581	    -12.15894519	     -0.77057695	    -11.17048022	      5.47386516	      2.31051874	      1.75158169	    -14.84135669	    -10.32324508	     24.48724503	     45.25858017	      0.00000000	      0.00000000	     20.32108569	    -18.30706403	      6.03926449	     49.62323147	     44.87126543	      0.00000000	      0.00000000
      6.85400000	     -3.74233662	     -5.87530987	     -2.15725174	      1.03454734	      0.93611179	      0.42289262	     30.37802576	     -4.41620544	     -7.46039809	     38.60482765	     38.60482765	      1.55112385	    -11.42297781	     -1.34052164	     13.68383609	     -6.34229748	     -8.40984859	     20.50632395	     20.50632395	     12.16450275	    -12.24138479	     -0.79841301	    -11.09928456	      5.60043959	      2.19663472	      0.58222628	    -15.23552879	    -10.60014355	     24.02390147	     45.30613030	      0.00000000	      0.00000000	     20.75937046	    -18.65404677	      5.74498546	     50.39526571	     44.92408113	      0.00000000	      0.00000000
      6.86742857	     -3.85348883	     -5.78861826	     -2.58497359	      1.03363505	      0.93594249	      0.42303590	     30.25036216	     -4.34878089	     -7.98998420	     35.14759197	     35.14759197	      1.10183478	     -9.86244249	     -1.55545792	     13.31232888	     -6.31180265	     -8.91307660	     20.33428322	     20.33428322	     12.39993919	    -12.05302202	     -0.95084379	    -11.20594168	      5.53279345	      2.36687984	     -0.77608046	    -15.52505265	    -11.76464483	     23.97430666	     45.45461499	      0.00000000	      0.00000000	     20.68198636	    -18.93248016	      4.82723902	     53.04243202	     45.09672376	      0.00000000	      0.00000000
      6.88085714	     -3.98725791	     -5.77962588	     -2.93543497	      1.03278346	      0.93575619	      0.42332736	     29.96356536	     -4.12129956	     -8.53896806	     31.50581619	     31.50581619	      0.64092062	     -8.16944344	     -1.12315049	     13.00682222	     -6.34968540	     -9.20118104	     20.20930282	     20.20930282	     12.58893399	    -12.04555971	     -1.04022482	    -11.18967539	      5.58194062	      2.32519705	     -1.83601281	    -15.83678583	    -12.13549143	     23.71592328	     45.50629088	      0.00000000	      0.00000000	     20.93624426	    -19.16657441	      4.43094952	     54.03046554	     45.16441874	      0.00000000	      0.00000000
      6.89428571	     -4.24510868	     -5.64350868	     -3.31148414	      1.03199835	      0.93525828	      0.42381139	     29.75775707	     -3.96063371	     -9.05042451	     27.93630130	     27.93630130	      0.22171914	     -6.29994783	     -0.63052453	     12.81673258	     -6.26854793	     -9.59067680	     20.05832599	     20.05832599	     12.78668587	    -11.99483650	     -1.15873210	    -10.98248138	      5.47113521	      2.35999931	     -2.87341873	    -15.98963557	    -12.39843527	     23.52650367	     45.53865945	      0.00000000	      0.00000000	     21.15892604	    -19.35728248	      4.07174817	     54.98715181	     45.22074033	      0.00000000	      0.00000000
      6.90771429	     -4.21585905	     -5.45498319	     -3.60487172	      1.03154356	      0.93498691	      0.42429517	     29.14135713	     -4.00817595	    -10.09063865	     24.52393796	     24.52393796	     -0.03962334	     -3.18413381	     -0.44156052	     12.29526374	     -6.14327988	    -10.09689390	     19.91403523	     19.91403523	     13.06829137	    -11.60290519	     -1.44791114	    -11.17051636	      5.26423856	      2.49739555	     -4.13683548	    -16.16491421	    -13.17113240	     23.93883524	     45.60617083	      0.00000000	      0.00000000	     21.01504075	    -19.41986751	      3.16293525	     57.28920167	     45.36217441	      0.00000000	      0.00000000
      6.92114286	     -4.47361051	     -5.29947890	     -3.85082222	      1.03103914	      0.93435054	      0.42500114	     28.70371259	     -3.78392646	    -10.59716643	     21.11425175	     21.11425175	     -0.46180579	     -1.20863255	      0.31515473	     12.11986886	     -6.04303887	    -10.40839676	     19.77704636	     19.77704636	     13.23065012	    -11.54121431	     -1.58620727	    -10.95032277	      5.20805018	      2.47921526	     -5.00861850	    -16.17040451	    -13.43281087	     23.94601375	     45.63018524	      0.00000000	      0.00000000	     21.03156517	    -19.54741402	      2.79948665	     58.14584316	     45.41701667	      0.00000000	      0.00000000
      6.93457143	     -4.43018035	     -5.09320788	     -4.05529295	      1.03097619	      0.93389934	      0.42579063	     28.07191839	     -3.81207657	    -11.68959273	     18.45754202	     18.45754202	     -0.30231075	      2.03983891	      1.82046145	     11.57731394	     -5.89884360	    -10.83068911	     19.64114559	     19.64114559	     13.49716651	    -11.18484126	     -2.07476962	    -11.02826225	      4.92959336	      2.19886687	     -6.13904698	    -16.09690553	    -14.71837543	     25.26956910	     45.72819304	      0.00000000	      0.00000000	     20.32662571	    -19.63973607	      1.29647075	     60.80327570	     45.65548118	      0.00000000	      0.00000000
      6.94800000	     -4.61376292	     -4.78969519	     -4.23749561	      1.03086501	      0.93309528	      0.42687207	     27.65757119	     -3.71637221	    -11.89464622	     16.04860292	     16.04860292	     -0.54501718	      3.55926085	      2.54441953	     11.32107511	     -5.64557194	    -11.06700796	     19.53263253	     19.53263253	     13.71587629	    -11.09782819	     -2.23000813	    -10.70603561	      4.57520649	      2.19031183	     -6.85734911	    -15.95176930	    -14.80402528	     25.10978737	     45.74222047	      0.00000000	      0.00000000	     20.46573455	    -19.65775366	      1.12815792	     61.22965282	     45.68595789	      0.00000000	      0.00000000
      6.96142857	     -4.50183136	     -4.66870268	     -4.30710467	      1.03124790	      0.93276701	      0.42783749	     26.84786870	     -3.69065456	    -13.20920039	     14.19583158	     14.19583158	     -0.01540306	      6.50180573	      4.42391487	     10.59992192	     -5.55735638	    -11.38463808	     19.21570730	     19.21570730	     13.95763138	    -10.69503734	     -2.68697371	    -10.81066694	      4.49667403	      2.21393914	     -7.73557688	    -15.82931998	    -15.36656654	     25.76019801	     45.79073262	      0.00000000	      0.00000000	     20.21301155	    -19.42295797	      0.47581360	     62.55384346	     45.82043782	      0.00000000	      0.00000000
      6.97485714	     -4.55642225	     -4.45726286	     -4.37179720	      1.03166490	      0.93213894	      0.42911695	     26.20867417	     -3.56197116	    -13.51169474	     12.66585569	     12.66585569	      0.01597564	      7.55704509	      5.04626391	     10.12351742	     -5.37834307	    -11.52893151	     18.99809777	     18.99809777	     14.20366779	    -10.55497945	     -2.84757111	    -10.57986736	      4.27323367	      2.19751733	     -8.25539249	    -15.60815782	    -15.44008699	     25.75981801	     45.80002229	      0.00000000	      0.00000000	     20.18835078	    -19.29759372	      0.35078525	     62.91184390	     45.85059416	      0.00000000	      0.00000000
